# File created by Blade
# Date/Time:  Wed Jan 21 17:34:14 2015
#---------------------------------------------------------
:version 1.10
:name HOM
:units
  mass 1.0
  length 1.000000
  angle deg
:documentation
     Acclaim Skeleton File
:root
   axis xyz
   order TX TY TZ RX RY RZ
   position 0.000000 0.000000 0.000000
   orientation 0 0 0
:bonedata
   begin
      id 1
      name Spine_dum
      direction 0.000000 1.000000 0.000000
      length 7.067664
      axis 0.0 0.0 0.0 xyz
   end
   begin
      id 2
      name LeftUpLeg_dum
      direction 1.000000 0.000000 0.000000
      length 4.013002
      axis 0.0 0.0 0.0 xyz
   end
   begin
      id 3
      name RightUpLeg_dum
      direction -1.000000 0.000000 0.000000
      length 4.013002
      axis 0.0 0.0 0.0 xyz
   end
   begin
      id 4
      name Spine
      direction 0.000000 1.000000 0.000000
      length 0.000000
      axis 0.0 0.0 0.0 xyz
      dof rx ry rz
   end
   begin
      id 5
      name Spine_dum1
      direction 0.000000 1.000000 0.000000
      length 15.039886
      axis 0.0 0.0 0.0 xyz
   end
   begin
      id 6
      name Spine_dum2
      direction 0.000000 1.000000 0.000000
      length 10.530368
      axis 0.0 0.0 0.0 xyz
   end
   begin
      id 7
      name Spine_dum3
      direction 0.000000 1.000000 0.000000
      length 10.530368
      axis 0.0 0.0 0.0 xyz
   end
   begin
      id 8
      name Head
      direction 0.000000 1.000000 0.000000
      length 4.527550
      axis 0.0 0.0 0.0 xyz
      dof rx ry rz
   end
   begin
      id 9
      name LeftShoulder
      direction 1.000000 0.000000 0.000000
      length 7.028855
      axis 0.0 0.0 -90.0 xyz
      dof rx ry rz
   end
   begin
      id 10
      name LeftArm
      direction 1.000000 0.000000 0.000000
      length 10.797705
      axis 0.0 0.0 -90.0 xyz
      dof rx ry rz
   end
   begin
      id 11
      name LeftForeArm
      direction 1.000000 0.000000 0.000000
      length 7.907442
      axis 0.0 0.0 -90.0 xyz
      dof ry rz rx
   end
   begin
      id 12
      name LeftHand
      direction 0.000000 0.000000 0.000000
      length 0.000000
      axis 0.0 0.0 -90.0 xyz
      dof rx ry rz
   end
   begin
      id 13
      name LeftHand_dum1
      direction 0.000000 0.000000 0.000000
      length 0.000000
      axis 0.0 0.0 -90.0 xyz
   end
   begin
      id 14
      name LeftHand_dum2
      direction 1.000000 0.000000 0.000000
      length 3.937000
      axis 0.0 0.0 -90.0 xyz
   end
   begin
      id 15
      name LeftHandThumb1
      direction 0.000000 0.000000 1.000000
      length 3.937000
      axis 0.0 0.0 -90.0 xyz
      dof rx rz ry
   end
   begin
      id 16
      name RightShoulder
      direction -1.000000 0.000000 0.000000
      length 7.028855
      axis 0.0 0.0 90.0 xyz
      dof rx ry rz
   end
   begin
      id 17
      name RightArm
      direction -1.000000 0.000000 0.000000
      length 10.797705
      axis 0.0 0.0 90.0 xyz
      dof rx ry rz
   end
   begin
      id 18
      name RightForeArm
      direction -1.000000 0.000000 0.000000
      length 7.907442
      axis 0.0 0.0 90.0 xyz
      dof ry rz rx
   end
   begin
      id 19
      name RightHand
      direction 0.000000 0.000000 0.000000
      length 0.000000
      axis 0.0 0.0 90.0 xyz
      dof rx ry rz
   end
   begin
      id 20
      name RightHand_dum1
      direction 0.000000 0.000000 0.000000
      length 0.000000
      axis 0.0 0.0 90.0 xyz
   end
   begin
      id 21
      name RightHand_dum2
      direction -1.000000 0.000000 0.000000
      length 3.937000
      axis 0.0 0.0 90.0 xyz
   end
   begin
      id 22
      name RightHandThumb1
      direction 0.000000 0.000000 1.000000
      length 3.937000
      axis 0.0 0.0 90.0 xyz
      dof rx rz ry
   end
   begin
      id 23
      name LeftUpLeg
      direction 0.000000 -1.000000 0.000000
      length 16.899758
      axis 0.0 0.0 0.0 xyz
      dof rx ry rz
   end
   begin
      id 24
      name LeftLeg
      direction 0.000000 -1.000000 0.000000
      length 17.389183
      axis 0.0 0.0 0.0 xyz
      dof rx ry rz
   end
   begin
      id 25
      name LeftFoot
      direction 0.000000 -0.258819 0.965926
      length 4.924528
      axis 15.0 0.0 0.0 xyz
      dof rx ry rz
   end
   begin
      id 26
      name LeftToeBase
      direction 0.000000 0.000000 1.000000
      length 2.952750
      axis 0.0 0.0 0.0 xyz
      dof rx ry rz
   end
   begin
      id 27
      name RightUpLeg
      direction 0.000000 -1.000000 0.000000
      length 16.899758
      axis 0.0 0.0 0.0 xyz
      dof rx ry rz
   end
   begin
      id 28
      name RightLeg
      direction 0.000000 -1.000000 0.000000
      length 17.389183
      axis 0.0 0.0 0.0 xyz
      dof rx ry rz
   end
   begin
      id 29
      name RightFoot
      direction 0.000000 -0.258819 0.965926
      length 4.924528
      axis 15.0 0.0 0.0 xyz
      dof rx ry rz
   end
   begin
      id 30
      name RightToeBase
      direction 0.000000 0.000000 1.000000
      length 2.952750
      axis 0.0 0.0 0.0 xyz
      dof rx ry rz
   end
:hierarchy
   begin
      root Spine_dum LeftUpLeg_dum RightUpLeg_dum
      Spine_dum Spine
      LeftUpLeg_dum LeftUpLeg
      RightUpLeg_dum RightUpLeg
      Spine Spine_dum1 Spine_dum2 Spine_dum3
      Spine_dum1 Head
      Spine_dum2 LeftShoulder
      Spine_dum3 RightShoulder
      LeftShoulder LeftArm
      LeftArm LeftForeArm
      LeftForeArm LeftHand
      LeftHand LeftHand_dum1 LeftHand_dum2
      LeftHand_dum1 LeftHandThumb1
      RightShoulder RightArm
      RightArm RightForeArm
      RightForeArm RightHand
      RightHand RightHand_dum1 RightHand_dum2
      RightHand_dum1 RightHandThumb1
      LeftUpLeg LeftLeg
      LeftLeg LeftFoot
      LeftFoot LeftToeBase
      RightUpLeg RightLeg
      RightLeg RightFoot
      RightFoot RightToeBase
   end

# File created by Blade
# Date/Time:  Wed Jan 21 17:34:04 2015
# Frame Rate: 120.000 fps
#------------------------------------------------------
:FULLY-SPECIFIED
:DEGREES
51
root 20.205732 35.471588 -23.193979 -176.455024 -2.643650 -179.363233
Spine -9.319491 -0.058382 -0.405346
Head 14.316046 -2.459798 0.551526
LeftShoulder -12.316354 -31.567347 19.022636
LeftArm 0.235499 0.295730 -7.913481
LeftForeArm 7.541822 -0.000000 -2.697442
LeftHand -8.363456 -0.000000 -0.341113
LeftHandThumb1 -26.253704 0.000000 33.147579
RightShoulder -11.667880 -2.882465 -10.137116
RightArm 0.580892 41.023290 9.573968
RightForeArm -32.512777 0.000000 5.157936
RightHand -8.968827 0.000000 3.651123
RightHandThumb1 -24.326973 -0.000000 -32.862282
LeftUpLeg 6.159161 6.577160 1.173603
LeftLeg -5.949230 -0.000000 0.000000
LeftFoot -19.448278 24.676485 -11.360199
LeftToeBase 23.531728 -0.000000 -0.000000
RightUpLeg 5.689267 -12.379759 -0.612693
RightLeg -4.481951 -0.000000 0.000000
RightFoot -20.481712 -25.313564 15.232138
RightToeBase 24.708082 -0.000000 -0.000000
52
root 20.201775 35.477655 -23.166720 -176.545965 -2.697458 -179.360811
Spine -9.098685 -0.009291 -0.425054
Head 14.884468 -2.572412 0.523104
LeftShoulder -12.274108 -31.540237 18.794601
LeftArm 0.451642 0.349140 -8.042180
LeftForeArm 6.392798 -0.000000 -2.642576
LeftHand -8.453664 -0.000000 -0.407784
LeftHandThumb1 -26.253704 0.000000 33.147579
RightShoulder -11.662416 -2.986559 -9.960000
RightArm 0.662684 41.051840 9.634721
RightForeArm -32.066909 -0.000000 5.192954
RightHand -8.982126 -0.000000 3.093639
RightHandThumb1 -24.326973 -0.000000 -32.862282
LeftUpLeg 6.169980 6.539806 1.171535
LeftLeg -5.901161 -0.000000 0.000000
LeftFoot -19.408537 24.687163 -11.343548
LeftToeBase 23.513338 -0.000000 -0.000000
RightUpLeg 5.729832 -12.440177 -0.627703
RightLeg -4.461181 -0.000000 0.000000
RightFoot -20.434658 -25.310233 15.272740
RightToeBase 24.690457 -0.000000 -0.000000
53
root 20.196119 35.484373 -23.137403 -176.608638 -2.748086 -179.377477
Spine -8.917585 0.034023 -0.469424
Head 15.509200 -2.587966 0.491451
LeftShoulder -12.220785 -31.537157 18.549586
LeftArm 0.658241 0.374726 -8.180994
LeftForeArm 5.479160 -0.000000 -2.529905
LeftHand -8.299393 -0.000000 -0.498916
LeftHandThumb1 -26.253704 0.000000 33.147579
RightShoulder -11.652828 -3.030743 -9.766622
RightArm 0.796795 40.973693 9.754768
RightForeArm -31.454410 -0.000000 5.258195
RightHand -9.161547 -0.000000 2.328785
RightHandThumb1 -24.326973 -0.000000 -32.862282
LeftUpLeg 6.139425 6.516633 1.145139
LeftLeg -5.829346 -0.000000 0.000000
LeftFoot -19.361653 24.667823 -11.346205
LeftToeBase 23.464312 -0.000000 -0.000000
RightUpLeg 5.737986 -12.503623 -0.659257
RightLeg -4.435981 -0.000000 0.000000
RightFoot -20.387351 -25.289351 15.292836
RightToeBase 24.673160 -0.000000 -0.000000
54
root 20.189753 35.491342 -23.107232 -176.672982 -2.779217 -179.393123
Spine -8.719657 0.098510 -0.513989
Head 16.139588 -2.742702 0.484236
LeftShoulder -12.223268 -31.505755 18.288363
LeftArm 0.964068 0.338715 -8.382544
LeftForeArm 4.904617 0.000000 -2.417161
LeftHand -8.181880 0.000000 -0.254463
LeftHandThumb1 -26.253704 0.000000 33.147579
RightShoulder -11.679419 -3.088219 -9.550619
RightArm 1.034005 40.808136 9.954144
RightForeArm -30.804560 -0.000000 5.332767
RightHand -9.272787 -0.000000 1.482878
RightHandThumb1 -24.326973 -0.000000 -32.862282
LeftUpLeg 6.121127 6.526531 1.119453
LeftLeg -5.777196 -0.000000 0.000000
LeftFoot -19.315204 24.647056 -11.340237
LeftToeBase 23.499027 -0.000000 -0.000000
RightUpLeg 5.738184 -12.555108 -0.690625
RightLeg -4.401000 -0.000000 0.000000
RightFoot -20.329296 -25.297876 15.278266
RightToeBase 24.648545 -0.000000 -0.000000
55
root 20.183812 35.498328 -23.081472 -176.803265 -2.838270 -179.395608
Spine -8.468384 0.131341 -0.536088
Head 16.864527 -2.761067 0.446294
LeftShoulder -12.147356 -31.439054 17.942382
LeftArm 1.238747 0.380282 -8.581818
LeftForeArm 4.650132 -0.000000 -2.228535
LeftHand -8.089720 -0.000000 -0.027897
LeftHandThumb1 -26.253704 0.000000 33.147579
RightShoulder -11.668962 -3.178669 -9.338844
RightArm 1.236969 40.683318 10.203779
RightForeArm -30.331645 0.000000 5.547159
RightHand -9.382267 0.000000 0.713023
RightHandThumb1 -24.326973 -0.000000 -32.862282
LeftUpLeg 6.182657 6.496040 1.115821
LeftLeg -5.745690 -0.000000 0.000000
LeftFoot -19.256669 24.633346 -11.355004
LeftToeBase 23.441304 -0.000000 -0.000000
RightUpLeg 5.831525 -12.627878 -0.720334
RightLeg -4.399162 -0.000000 0.000000
RightFoot -20.268577 -25.289812 15.317622
RightToeBase 24.593196 -0.000000 -0.000000
56
root 20.178370 35.505360 -23.047386 -176.888313 -2.886345 -179.400667
Spine -8.245202 0.207469 -0.573798
Head 17.601524 -2.852534 0.432521
LeftShoulder -12.042857 -31.462174 17.589092
LeftArm 1.495057 0.520849 -8.826116
LeftForeArm 4.659803 -0.000000 -1.928645
LeftHand -7.975737 -0.000000 0.330262
LeftHandThumb1 -26.253704 0.000000 33.147579
RightShoulder -11.668462 -3.282578 -9.126528
RightArm 1.431767 40.482070 10.552708
RightForeArm -29.891637 -0.000000 5.906296
RightHand -9.535831 -0.000000 -0.113734
RightHandThumb1 -24.326973 -0.000000 -32.862282
LeftUpLeg 6.175629 6.503749 1.104564
LeftLeg -5.695009 -0.000000 0.000000
LeftFoot -19.202259 24.600756 -11.327195
LeftToeBase 23.469216 -0.000000 -0.000000
RightUpLeg 5.851795 -12.644615 -0.737145
RightLeg -4.373689 -0.000000 0.000000
RightFoot -20.222790 -25.332277 15.356302
RightToeBase 24.579390 -0.000000 -0.000000
57
root 20.169474 35.512282 -23.012257 -176.985253 -2.923879 -179.413028
Spine -7.994952 0.240128 -0.595148
Head 18.328151 -2.834151 0.453118
LeftShoulder -12.004764 -31.471149 17.172178
LeftArm 1.872965 0.787624 -9.040649
LeftForeArm 4.801768 -0.000000 -1.688898
LeftHand -7.725376 -0.000000 0.675829
LeftHandThumb1 -26.253704 0.000000 33.147579
RightShoulder -11.615356 -3.396655 -8.923993
RightArm 1.690146 40.076188 10.980069
RightForeArm -29.532883 0.000000 6.273015
RightHand -9.722517 -0.000000 -1.145192
RightHandThumb1 -24.326973 -0.000000 -32.862282
LeftUpLeg 6.184333 6.474388 1.079924
LeftLeg -5.648727 -0.000000 0.000000
LeftFoot -19.148130 24.608146 -11.329312
LeftToeBase 23.418047 -0.000000 -0.000000
RightUpLeg 5.878190 -12.662141 -0.771906
RightLeg -4.339144 -0.000000 0.000000
RightFoot -20.183195 -25.350808 15.384051
RightToeBase 24.578609 -0.000000 -0.000000
58
root 20.159541 35.518796 -22.973974 -177.096915 -2.959592 -179.430779
Spine -7.714088 0.317742 -0.630364
Head 19.096066 -3.006803 0.452643
LeftShoulder -11.846157 -31.540557 16.664563
LeftArm 2.187748 1.117781 -9.219093
LeftForeArm 5.472715 -0.000000 -1.401695
LeftHand -7.693991 0.000000 1.179737
LeftHandThumb1 -26.253704 0.000000 33.147579
RightShoulder -11.611027 -3.635899 -8.705854
RightArm 2.032433 39.725695 11.539349
RightForeArm -29.333415 -0.000000 6.674964
RightHand -9.785557 -0.000000 -2.113856
RightHandThumb1 -24.326973 -0.000000 -32.862282
LeftUpLeg 6.201279 6.446874 1.048706
LeftLeg -5.599257 -0.000000 0.000000
LeftFoot -19.087339 24.613572 -11.313081
LeftToeBase 23.424527 -0.000000 -0.000000
RightUpLeg 5.914338 -12.662752 -0.813755
RightLeg -4.306696 -0.000000 0.000000
RightFoot -20.134563 -25.420247 15.373449
RightToeBase 24.544301 -0.000000 -0.000000
59
root 20.152425 35.525765 -22.932084 -177.227210 -3.032946 -179.471800
Spine -7.389144 0.333920 -0.726302
Head 19.829234 -2.993543 0.507272
LeftShoulder -11.706118 -31.550893 16.197564
LeftArm 2.538602 1.611883 -9.467927
LeftForeArm 5.908180 -0.000000 -1.074564
LeftHand -7.650151 0.000000 1.678950
LeftHandThumb1 -26.253704 0.000000 33.147579
RightShoulder -11.586020 -3.926528 -8.419216
RightArm 2.456312 39.327536 12.169306
RightForeArm -29.204371 -0.000000 7.031428
RightHand -9.727758 -0.000000 -3.266481
RightHandThumb1 -24.326973 -0.000000 -32.862282
LeftUpLeg 6.202019 6.432900 1.001885
LeftLeg -5.500260 -0.000000 0.000000
LeftFoot -19.053645 24.568906 -11.336083
LeftToeBase 23.418979 -0.000000 -0.000000
RightUpLeg 5.969873 -12.726469 -0.879886
RightLeg -4.272582 -0.000000 0.000000
RightFoot -20.096420 -25.445612 15.370476
RightToeBase 24.545504 -0.000000 -0.000000
60
root 20.144580 35.531845 -22.892288 -177.364062 -3.094764 -179.493274
Spine -7.073038 0.323633 -0.781984
Head 20.621211 -3.058142 0.549349
LeftShoulder -11.642315 -31.378213 15.722504
LeftArm 3.021150 2.450091 -9.787651
LeftForeArm 6.044480 -0.000000 -0.755493
LeftHand -7.773440 -0.000000 2.139795
LeftHandThumb1 -26.253704 0.000000 33.147579
RightShoulder -11.545411 -4.318143 -8.128237
RightArm 3.012374 38.927934 12.916089
RightForeArm -29.150118 0.000000 7.418492
RightHand -9.861882 -0.000000 -4.419291
RightHandThumb1 -24.326973 -0.000000 -32.862282
LeftUpLeg 6.217249 6.442778 0.974864
LeftLeg -5.411396 -0.000000 0.000000
LeftFoot -19.018809 24.500078 -11.360866
LeftToeBase 23.362958 -0.000000 -0.000000
RightUpLeg 6.033950 -12.754124 -0.928398
RightLeg -4.240040 -0.000000 0.000000
RightFoot -20.067407 -25.490552 15.380582
RightToeBase 24.560946 -0.000000 -0.000000
